<?xml version="1.0" encoding="UTF-8" standalone="no"?>
<!-- Created with Inkscape (http://www.inkscape.org/) -->

<svg
   xmlns:dc="http://purl.org/dc/elements/1.1/"
   xmlns:cc="http://creativecommons.org/ns#"
   xmlns:rdf="http://www.w3.org/1999/02/22-rdf-syntax-ns#"
   xmlns:svg="http://www.w3.org/2000/svg"
   xmlns="http://www.w3.org/2000/svg"
   xmlns:sodipodi="http://sodipodi.sourceforge.net/DTD/sodipodi-0.dtd"
   xmlns:inkscape="http://www.inkscape.org/namespaces/inkscape"
   width="883.2074"
   height="883.2074"
   viewBox="0 0 233.68196 233.68195"
   version="1.1"
   id="svg8"
   inkscape:version="0.92.3 (2405546, 2018-03-11)"
   sodipodi:docname="DataOpticonIcon INKSCAPE.svg">
  <defs
     id="defs2" />
  <sodipodi:namedview
     id="base"
     pagecolor="#ffffff"
     bordercolor="#666666"
     borderopacity="1.0"
     inkscape:pageopacity="0.0"
     inkscape:pageshadow="2"
     inkscape:zoom="0.35705889"
     inkscape:cx="1011.3454"
     inkscape:cy="536.64696"
     inkscape:document-units="mm"
     inkscape:current-layer="layer1"
     showgrid="false"
     inkscape:showpageshadow="false"
     inkscape:pagecheckerboard="true"
     inkscape:window-width="2560"
     inkscape:window-height="1377"
     inkscape:window-x="2564"
     inkscape:window-y="32"
     inkscape:window-maximized="1"
     showguides="true"
     inkscape:guide-bbox="true"
     units="px" />
  <metadata
     id="metadata5">
    <rdf:RDF>
      <cc:Work
         rdf:about="">
        <dc:format>image/svg+xml</dc:format>
        <dc:type
           rdf:resource="http://purl.org/dc/dcmitype/StillImage" />
        <dc:title></dc:title>
      </cc:Work>
    </rdf:RDF>
  </metadata>
  <g
     inkscape:label="Layer 1"
     inkscape:groupmode="layer"
     id="layer1"
     transform="translate(-47.502707,-69.939806)">
    <g
       id="g3346"
       transform="translate(6.5226567,9.6549116)">
      <path
         inkscape:connector-curvature="0"
         id="path840"
         d="m 173.67375,96.871634 a 7.6262558,7.6262558 0 0 0 -2.74757,0.565966 c -0.86244,0.338594 -1.70013,0.69872 -2.51606,1.076272 a 16.921292,16.921292 0 0 0 9.18599,12.592628 7.6262558,7.6262558 0 0 0 -3.92236,-14.234866 z m -12.19117,5.667546 c -4.91642,3.53283 -8.59353,7.86808 -11.03512,12.52317 -3.81103,7.26605 -4.77273,15.00971 -4.57255,21.90472 0.0101,0.34885 0.0254,0.69466 0.0414,1.04031 h 15.27518 c -0.0309,-0.49206 -0.0565,-0.98634 -0.0709,-1.48363 -0.14821,-5.10524 0.63186,-10.18052 2.83328,-14.37771 1.34632,-2.56687 3.16803,-4.91543 5.95177,-6.97089 -4.0051,-3.18909 -7.00662,-7.59476 -8.423,-12.63597 z m -14.76192,43.09323 c 1.55937,9.59327 4.66861,16.52877 4.66861,16.52877 a 7.6262558,7.6262558 0 1 0 13.97379,-6.11184 c 0,0 -1.85311,-4.37679 -3.11502,-10.41693 z"
         style="color:#000000;font-style:normal;font-variant:normal;font-weight:normal;font-stretch:normal;font-size:medium;line-height:normal;font-family:sans-serif;font-variant-ligatures:normal;font-variant-position:normal;font-variant-caps:normal;font-variant-numeric:normal;font-variant-alternates:normal;font-feature-settings:normal;text-indent:0;text-align:start;text-decoration:none;text-decoration-line:none;text-decoration-style:solid;text-decoration-color:#000000;letter-spacing:normal;word-spacing:normal;text-transform:none;writing-mode:lr-tb;direction:ltr;text-orientation:mixed;dominant-baseline:auto;baseline-shift:baseline;text-anchor:start;white-space:normal;shape-padding:0;clip-rule:nonzero;display:inline;overflow:visible;visibility:visible;opacity:1;isolation:auto;mix-blend-mode:normal;color-interpolation:sRGB;color-interpolation-filters:linearRGB;solid-color:#000000;solid-opacity:1;vector-effect:none;fill:#333333;fill-opacity:1;fill-rule:nonzero;stroke:none;stroke-width:16;stroke-linecap:round;stroke-linejoin:miter;stroke-miterlimit:4;stroke-dasharray:none;stroke-dashoffset:0;stroke-opacity:1;color-rendering:auto;image-rendering:auto;shape-rendering:auto;text-rendering:auto;enable-background:accumulate" />
      <path
         inkscape:connector-curvature="0"
         id="path844"
         d="m 202.04746,95.975299 a 16.921292,16.921292 0 0 1 -16.92129,16.921301 16.921292,16.921292 0 0 1 -16.9213,-16.921301 16.921292,16.921292 0 0 1 16.9213,-16.921293 16.921292,16.921292 0 0 1 16.92129,16.921293 z"
         style="opacity:1;vector-effect:none;fill:#333333;fill-opacity:1;stroke:none;stroke-width:16;stroke-linecap:round;stroke-linejoin:round;stroke-miterlimit:4;stroke-dasharray:none;stroke-dashoffset:0;stroke-opacity:1;paint-order:markers stroke fill" />
      <path
         inkscape:connector-curvature="0"
         id="rect826"
         d="m 90.393476,145.63241 c -9.361054,0 -16.897219,7.53616 -16.897219,16.89722 v 47.72785 c 0,9.36105 7.536165,16.89721 16.897219,16.89721 H 225.24859 c 9.36105,0 16.89721,-7.53616 16.89721,-16.89721 V 186.3933 162.52963 c 0,-9.36106 -7.53616,-16.89722 -16.89721,-16.89722 z m 10.412994,15.62343 h 6.55713 c 9.36105,0 16.89721,7.53616 16.89721,16.89721 v 6.55714 c 0,9.36105 -7.53616,16.89721 -16.89721,16.89721 h -6.55713 c -9.361058,0 -16.897221,-7.53616 -16.897221,-16.89721 v -6.55714 c 0,-9.36105 7.536163,-16.89721 16.897221,-16.89721 z m 108.44483,0 h 6.55713 c 9.36106,0 16.89722,7.53616 16.89722,16.89721 v 6.55714 c 0,9.36105 -7.53616,16.89721 -16.89722,16.89721 h -6.55713 c -9.36105,0 -16.89722,-7.53616 -16.89722,-16.89721 v -6.55714 c 0,-9.36105 7.53617,-16.89721 16.89722,-16.89721 z m -26.43292,27.29691 a 2.8598461,2.8598461 0 0 1 2.82783,2.91159 c 3e-5,9.93663 -5.30683,19.12933 -13.91221,24.09765 -8.60537,4.9683 -19.21958,4.9683 -27.82495,0 -8.60537,-4.96832 -13.9142,-14.16102 -13.9142,-24.09765 a 2.8598461,2.8598461 0 0 1 2.81653,-2.90076 2.8598461,2.8598461 0 0 1 2.90274,2.90076 c 0,7.90255 4.21101,15.19257 11.05481,19.14384 6.84382,3.95128 15.26188,3.95128 22.10569,0 6.8438,-3.95127 11.05285,-11.24129 11.05285,-19.14384 a 2.8598461,2.8598461 0 0 1 2.89091,-2.91159 z"
         style="opacity:1;vector-effect:none;fill:#333333;fill-opacity:1;stroke:none;stroke-width:16;stroke-linecap:round;stroke-linejoin:round;stroke-miterlimit:4;stroke-dasharray:none;stroke-dashoffset:0;stroke-opacity:1;paint-order:markers stroke fill" />
      <path
         inkscape:connector-curvature="0"
         id="rect834"
         d="m 108.19797,232.19872 h 99.24653 c 2.17914,0 3.93348,1.75433 3.93348,3.93349 v 11.11056 c 0,2.17915 -1.75434,3.93349 -3.93348,3.93349 h -99.24653 c -2.17915,0 -3.93348,-1.75434 -3.93348,-3.93349 v -11.11056 c 0,-2.17916 1.75433,-3.93349 3.93348,-3.93349 z"
         style="opacity:1;vector-effect:none;fill:#333333;fill-opacity:1;stroke:none;stroke-width:5;stroke-linecap:round;stroke-linejoin:round;stroke-miterlimit:4;stroke-dasharray:none;stroke-dashoffset:0;stroke-opacity:1;paint-order:markers stroke fill" />
      <path
         inkscape:connector-curvature="0"
         id="rect836"
         d="m 117.47116,256.22019 h 80.70015 c 2.17915,0 3.93348,1.75434 3.93348,3.93349 v 11.11056 c 0,2.17916 -1.75433,3.9335 -3.93348,3.9335 h -80.70015 c -2.17916,0 -3.9335,-1.75434 -3.9335,-3.9335 v -11.11056 c 0,-2.17915 1.75434,-3.93349 3.9335,-3.93349 z"
         style="opacity:1;vector-effect:none;fill:#333333;fill-opacity:1;stroke:none;stroke-width:5;stroke-linecap:round;stroke-linejoin:round;stroke-miterlimit:4;stroke-dasharray:none;stroke-dashoffset:0;stroke-opacity:1;paint-order:markers stroke fill" />
    </g>
  </g>
</svg>
