<?xml version="1.0" encoding="UTF-8" standalone="no"?>
<!-- Created with Inkscape (http://www.inkscape.org/) -->

<svg
   xmlns:dc="http://purl.org/dc/elements/1.1/"
   xmlns:cc="http://creativecommons.org/ns#"
   xmlns:rdf="http://www.w3.org/1999/02/22-rdf-syntax-ns#"
   xmlns:svg="http://www.w3.org/2000/svg"
   xmlns="http://www.w3.org/2000/svg"
   xmlns:sodipodi="http://sodipodi.sourceforge.net/DTD/sodipodi-0.dtd"
   xmlns:inkscape="http://www.inkscape.org/namespaces/inkscape"
   width="258.71689mm"
   height="258.71689mm"
   viewBox="0 0 258.71689 258.71689"
   version="1.1"
   id="svg8"
   inkscape:version="0.92.3 (2405546, 2018-03-11)"
   sodipodi:docname="DataOpticon Favicon INKSCAPE.svg">
  <defs
     id="defs2" />
  <sodipodi:namedview
     id="base"
     pagecolor="#ffffff"
     bordercolor="#666666"
     borderopacity="1.0"
     inkscape:pageopacity="0.0"
     inkscape:pageshadow="2"
     inkscape:zoom="0.35"
     inkscape:cx="499.16567"
     inkscape:cy="632.03084"
     inkscape:document-units="mm"
     inkscape:current-layer="layer1"
     showgrid="false"
     inkscape:showpageshadow="false"
     inkscape:pagecheckerboard="true"
     inkscape:window-width="1920"
     inkscape:window-height="1001"
     inkscape:window-x="-9"
     inkscape:window-y="41"
     inkscape:window-maximized="1" />
  <metadata
     id="metadata5">
    <rdf:RDF>
      <cc:Work
         rdf:about="">
        <dc:format>image/svg+xml</dc:format>
        <dc:type
           rdf:resource="http://purl.org/dc/dcmitype/StillImage" />
        <dc:title></dc:title>
      </cc:Work>
    </rdf:RDF>
  </metadata>
  <g
     inkscape:label="Layer 1"
     inkscape:groupmode="layer"
     id="layer1"
     transform="translate(-25.657875,-16.901527)">
    <g
       id="g62"
       transform="translate(-1.4658297,-10.57045)">
      <path
         inkscape:connector-curvature="0"
         id="path840"
         d="m 178.39989,79.083906 a 10.543949,10.543949 0 0 0 -3.79875,0.782488 c -1.1924,0.468143 -2.35058,0.96604 -3.47867,1.488048 a 23.395129,23.395129 0 0 0 12.70042,17.410381 10.543949,10.543949 0 0 0 -5.423,-19.680917 z m -16.85533,7.835857 c -6.79737,4.884439 -11.88129,10.878291 -15.257,17.314347 -5.26907,10.04595 -6.5987,20.7522 -6.32194,30.28514 0.014,0.48232 0.0351,0.96043 0.0572,1.43832 h 21.11924 c -0.0427,-0.68031 -0.0781,-1.3637 -0.098,-2.05124 -0.20491,-7.05842 0.8736,-14.07543 3.91726,-19.87841 1.8614,-3.54891 4.38007,-6.79601 8.22882,-9.63785 -5.53739,-4.409177 -9.68724,-10.500391 -11.64551,-17.470307 z m -20.40962,59.580077 c 2.15597,13.2635 6.45475,22.85243 6.45475,22.85243 a 10.543949,10.543949 0 1 0 19.31996,-8.45015 c 0,0 -2.56208,-6.05129 -4.30678,-14.40228 z"
         style="color:#000000;font-style:normal;font-variant:normal;font-weight:normal;font-stretch:normal;font-size:medium;line-height:normal;font-family:sans-serif;font-variant-ligatures:normal;font-variant-position:normal;font-variant-caps:normal;font-variant-numeric:normal;font-variant-alternates:normal;font-feature-settings:normal;text-indent:0;text-align:start;text-decoration:none;text-decoration-line:none;text-decoration-style:solid;text-decoration-color:#000000;letter-spacing:normal;word-spacing:normal;text-transform:none;writing-mode:lr-tb;direction:ltr;text-orientation:mixed;dominant-baseline:auto;baseline-shift:baseline;text-anchor:start;white-space:normal;shape-padding:0;clip-rule:nonzero;display:inline;overflow:visible;visibility:visible;opacity:1;isolation:auto;mix-blend-mode:normal;color-interpolation:sRGB;color-interpolation-filters:linearRGB;solid-color:#000000;solid-opacity:1;vector-effect:none;fill:#333333;fill-opacity:1;fill-rule:nonzero;stroke:none;stroke-width:22.12136459;stroke-linecap:round;stroke-linejoin:miter;stroke-miterlimit:4;stroke-dasharray:none;stroke-dashoffset:0;stroke-opacity:1;color-rendering:auto;image-rendering:auto;shape-rendering:auto;text-rendering:auto;enable-background:accumulate" />
      <path
         inkscape:connector-curvature="0"
         id="path844"
         d="M 217.62896,77.844639 A 23.395129,23.395129 0 0 1 194.23384,101.23978 23.395129,23.395129 0 0 1 170.8387,77.844639 23.395129,23.395129 0 0 1 194.23384,54.449513 23.395129,23.395129 0 0 1 217.62896,77.844639 Z"
         style="opacity:1;vector-effect:none;fill:#333333;fill-opacity:1;stroke:none;stroke-width:22.12136459;stroke-linecap:round;stroke-linejoin:round;stroke-miterlimit:4;stroke-dasharray:none;stroke-dashoffset:0;stroke-opacity:1;paint-order:markers stroke fill" />
      <path
         inkscape:connector-curvature="0"
         id="rect826"
         d="m 63.257809,146.49984 c -12.942463,0 -23.361851,10.41937 -23.361851,23.36183 v 65.98784 c 0,12.94245 10.419388,23.36182 23.361851,23.36182 H 249.7065 c 12.94247,0 23.36184,-10.41937 23.36184,-23.36182 v -32.99428 -32.99356 c 0,-12.94246 -10.41937,-23.36183 -23.36184,-23.36183 z m 14.396847,21.60071 h 9.065796 c 12.94245,0 23.361838,10.4194 23.361838,23.36183 v 9.06581 c 0,12.94246 -10.419388,23.36184 -23.361838,23.36184 h -9.065796 c -12.942464,0 -23.361848,-10.41938 -23.361848,-23.36184 v -9.06581 c 0,-12.94243 10.419384,-23.36183 23.361848,-23.36183 z m 149.934224,0 h 9.06581 c 12.94245,0 23.36185,10.4194 23.36185,23.36183 v 9.06581 c 0,12.94246 -10.4194,23.36184 -23.36185,23.36184 h -9.06581 c -12.94243,0 -23.36184,-10.41938 -23.36184,-23.36184 v -9.06581 c 0,-12.94243 10.41941,-23.36183 23.36184,-23.36183 z m -36.54576,37.74032 a 3.9539811,3.9539811 0 0 1 3.90972,4.02552 c 5e-5,13.73824 -7.33715,26.44793 -19.23482,33.31704 -11.89766,6.86911 -26.57271,6.86911 -38.47037,0 -11.89765,-6.86911 -19.23756,-19.5788 -19.23756,-33.31704 a 3.9539811,3.9539811 0 0 1 3.89409,-4.01055 3.9539811,3.9539811 0 0 1 4.01328,4.01055 c 0,10.92595 5.82208,21.00502 15.28422,26.46799 9.46217,5.46297 21.10085,5.46297 30.563,0 9.46215,-5.46297 15.28151,-15.54204 15.28151,-26.46799 a 3.9539811,3.9539811 0 0 1 3.99693,-4.02552 z"
         style="opacity:1;vector-effect:none;fill:#333333;fill-opacity:1;stroke:none;stroke-width:22.12136459;stroke-linecap:round;stroke-linejoin:round;stroke-miterlimit:4;stroke-dasharray:none;stroke-dashoffset:0;stroke-opacity:1;paint-order:markers stroke fill" />
    </g>
  </g>
</svg>
