<?xml version="1.0" encoding="UTF-8" standalone="no"?>
<svg
   xmlns:dc="http://purl.org/dc/elements/1.1/"
   xmlns:cc="http://creativecommons.org/ns#"
   xmlns:rdf="http://www.w3.org/1999/02/22-rdf-syntax-ns#"
   xmlns:svg="http://www.w3.org/2000/svg"
   xmlns="http://www.w3.org/2000/svg"
   id="svg8"
   version="1.1"
   viewBox="0 0 793.75002 264.58332"
   height="1000"
   width="3000">
  <defs
     id="defs2" />
  <metadata
     id="metadata5">
    <rdf:RDF>
      <cc:Work
         rdf:about="">
        <dc:format>image/svg+xml</dc:format>
        <dc:type
           rdf:resource="http://purl.org/dc/dcmitype/StillImage" />
        <dc:title></dc:title>
      </cc:Work>
    </rdf:RDF>
  </metadata>
  <g
     transform="translate(-37.260895,-44.834205)"
     id="layer1">
    <path
       id="path840"
       d="m 173.67375,96.871634 a 7.6262558,7.6262558 0 0 0 -2.74757,0.565966 c -0.86244,0.338594 -1.70013,0.69872 -2.51606,1.076272 a 16.921292,16.921292 0 0 0 9.18599,12.592628 7.6262558,7.6262558 0 0 0 -3.92236,-14.234866 z m -12.19117,5.667546 c -4.91642,3.53283 -8.59353,7.86808 -11.03512,12.52317 -3.81103,7.26605 -4.77273,15.00971 -4.57255,21.90472 0.0101,0.34885 0.0254,0.69466 0.0414,1.04031 h 15.27518 c -0.0309,-0.49206 -0.0565,-0.98634 -0.0709,-1.48363 -0.14821,-5.10524 0.63186,-10.18052 2.83328,-14.37771 1.34632,-2.56687 3.16803,-4.91543 5.95177,-6.97089 -4.0051,-3.18909 -7.00662,-7.59476 -8.423,-12.63597 z m -14.76192,43.09323 c 1.55937,9.59327 4.66861,16.52877 4.66861,16.52877 a 7.6262558,7.6262558 0 1 0 13.97379,-6.11184 c 0,0 -1.85311,-4.37679 -3.11502,-10.41693 z"
       style="color:#000000;font-style:normal;font-variant:normal;font-weight:normal;font-stretch:normal;font-size:medium;line-height:normal;font-family:sans-serif;font-variant-ligatures:normal;font-variant-position:normal;font-variant-caps:normal;font-variant-numeric:normal;font-variant-alternates:normal;font-feature-settings:normal;text-indent:0;text-align:start;text-decoration:none;text-decoration-line:none;text-decoration-style:solid;text-decoration-color:#000000;letter-spacing:normal;word-spacing:normal;text-transform:none;writing-mode:lr-tb;direction:ltr;text-orientation:mixed;dominant-baseline:auto;baseline-shift:baseline;text-anchor:start;white-space:normal;shape-padding:0;clip-rule:nonzero;display:inline;overflow:visible;visibility:visible;opacity:1;isolation:auto;mix-blend-mode:normal;color-interpolation:sRGB;color-interpolation-filters:linearRGB;solid-color:#000000;solid-opacity:1;vector-effect:none;fill:#333333;fill-opacity:1;fill-rule:nonzero;stroke:none;stroke-width:16;stroke-linecap:round;stroke-linejoin:miter;stroke-miterlimit:4;stroke-dasharray:none;stroke-dashoffset:0;stroke-opacity:1;color-rendering:auto;image-rendering:auto;shape-rendering:auto;text-rendering:auto;enable-background:accumulate" />
    <path
       id="path905"
       d="m 491.94715,151.79881 c -8.2345,0 -14.76951,2.57646 -18.7547,7.87132 -3.96266,5.20462 -5.68922,12.84917 -5.68922,22.84503 v 8.9269 c 0,10.00122 1.73042,17.67445 5.68525,22.93222 a 2.383205,2.383205 0 0 0 0.01,0.0128 c 3.9911,5.23617 10.51832,7.77084 18.7488,7.77084 8.23051,0 14.76015,-2.53467 18.75128,-7.77084 a 2.383205,2.383205 0 0 0 0.01,-0.0128 c 3.95483,-5.25777 5.68576,-12.931 5.68576,-22.93222 v -8.9269 c 0,-9.99586 -1.72707,-17.64041 -5.68973,-22.84503 -3.98519,-5.29486 -10.52166,-7.87132 -18.75616,-7.87132 z m -224.33788,0.91225 a 2.383205,2.383205 0 0 0 -2.38306,2.38306 v 63.77046 a 2.383205,2.383205 0 0 0 2.38306,2.38306 h 9.09093 c 9.6527,0 18.09203,-3.52554 24.80497,-10.37161 6.67455,-6.80692 10.15192,-14.91713 10.15192,-23.89668 0,-8.97955 -3.47737,-17.09173 -10.15192,-23.89865 -6.71294,-6.84607 -15.15227,-10.36964 -24.80497,-10.36964 z m 224.33788,6.58668 c 2.89043,0 5.27508,0.37527 7.15264,1.04622 a 2.383205,2.383205 0 0 0 0.0557,0.0187 c 1.82792,0.60297 3.46802,1.64259 5.00062,3.22241 1.38052,1.42312 2.56467,3.66663 3.37903,6.85662 a 2.383205,2.383205 0 0 0 0.003,0.01 c 0.8117,3.12374 1.24916,7.16195 1.24916,12.0636 v 8.9269 c 0,4.89663 -0.43556,8.96297 -1.24916,12.15473 -0.81255,3.12707 -1.99124,5.34223 -3.38101,6.77484 -1.5353,1.58261 -3.19148,2.65885 -5.0341,3.32142 -1.89067,0.61906 -4.28388,0.96594 -7.17482,0.96594 -2.89091,0 -5.28264,-0.34688 -7.17335,-0.96594 -1.8426,-0.66257 -3.50029,-1.73881 -5.03557,-3.32142 -1.38784,-1.43064 -2.56462,-3.64323 -3.37707,-6.76351 v -0.002 c -0.81493,-3.193 -1.2531,-7.26324 -1.2531,-12.16408 v -8.9269 c 0,-4.90166 0.43747,-8.93986 1.24916,-12.06361 a 2.383205,2.383205 0 0 0 0.004,-0.01 c 0.81437,-3.18999 1.99652,-5.43349 3.37708,-6.85661 1.53257,-1.57982 3.17418,-2.61944 5.00207,-3.22241 a 2.383205,2.383205 0 0 0 0.0561,-0.0187 c 1.87758,-0.67095 4.26026,-1.04622 7.15068,-1.04622 z m -219.11414,0.91224 h 3.86719 c 7.70365,0 13.96931,2.63513 19.31476,8.11711 a 2.383205,2.383205 0 0 0 0.0187,0.0187 c 5.43682,5.4582 8.01615,11.51841 8.01615,18.63353 0,7.11513 -2.58291,13.21163 -8.0255,18.73255 a 2.383205,2.383205 0 0 0 0,0.002 c -5.34326,5.42322 -11.61513,8.03534 -19.32462,8.03533 H 272.833 Z m 394.51539,2.521 c -8.32483,0 -14.85666,2.35997 -18.82022,7.37381 -3.94212,4.98673 -5.62569,12.46252 -5.62566,22.34064 0,9.87813 1.68354,17.35145 5.62566,22.33818 3.96356,5.01384 10.49539,7.37431 18.82022,7.37431 8.3126,0 14.83959,-2.27513 18.87738,-7.14871 a 2.383205,2.383205 0 0 0 -0.266,-3.31403 l -2.0836,-1.82252 a 2.383205,2.383205 0 0 0 -3.45145,0.33495 c -2.16705,2.7957 -6.27548,4.45138 -13.07633,4.45138 -2.98524,0 -5.41864,-0.29564 -7.26644,-0.81373 -1.75985,-0.5514 -3.40695,-1.51944 -4.9932,-2.98401 -1.37435,-1.37963 -2.53223,-3.4813 -3.33571,-6.46206 -1.7e-4,-5e-4 1.8e-4,-9.5e-4 0,-0.002 -0.8066,-3.05281 -1.24374,-7.05445 -1.24374,-11.95178 0,-4.90165 0.43979,-8.87769 1.24374,-11.86115 a 2.383205,2.383205 0 0 0 0.003,-0.0109 c 0.80884,-3.05729 1.97659,-5.15505 3.32534,-6.4527 1.594,-1.53357 3.2268,-2.48726 4.96317,-2.9786 a 2.383205,2.383205 0 0 0 0.0596,-0.0172 c 1.8298,-0.56956 4.25757,-0.895 7.24576,-0.895 6.80086,0 10.90927,1.65716 13.07633,4.45286 a 2.383205,2.383205 0 0 0 3.45145,0.33347 l 2.0836,-1.82252 a 2.383205,2.383205 0 0 0 0.26599,-3.31403 c -4.03777,-4.8736 -10.56477,-7.14871 -18.87737,-7.14871 z m 50.85766,0 c -8.32483,0 -14.85473,2.35997 -18.81826,7.37381 -3.94212,4.98673 -5.62763,12.46252 -5.62763,22.34064 0,9.87813 1.68551,17.35145 5.62763,22.33818 3.96353,5.01384 10.49343,7.37431 18.81826,7.37431 8.32482,0 14.85422,-2.36047 18.81775,-7.37431 3.94212,-4.98673 5.62813,-12.46005 5.62813,-22.33818 0,-9.87812 -1.68601,-17.35391 -5.62813,-22.34064 -3.96353,-5.01384 -10.49293,-7.37381 -18.81775,-7.37381 z m -378.38365,0.004 a 2.383205,2.383205 0 0 0 -2.07371,1.41861 l -23.67356,53.75103 a 2.383205,2.383205 0 0 0 2.18211,3.34358 h 3.02881 a 2.383205,2.383205 0 0 0 2.18014,-1.42058 l 18.46065,-41.79678 15.75938,35.71844 h -27.21466 a 2.383205,2.383205 0 0 0 -2.38256,2.38306 v 2.73279 a 2.383205,2.383205 0 0 0 2.38256,2.38307 h 35.1303 a 2.383205,2.383205 0 0 0 2.18012,-3.34358 l -23.67157,-53.75103 a 2.383205,2.383205 0 0 0 -2.28801,-1.41861 z m 97.27921,0 a 2.383205,2.383205 0 0 0 -2.07571,1.41861 l -23.67156,53.75103 a 2.383205,2.383205 0 0 0 2.18011,3.34358 h 3.03081 a 2.383205,2.383205 0 0 0 2.18012,-1.42058 l 18.46016,-41.79678 15.75741,35.71844 h -27.21415 a 2.383205,2.383205 0 0 0 -2.38306,2.38306 v 2.73279 a 2.383205,2.383205 0 0 0 2.38306,2.38307 h 35.1303 a 2.383205,2.383205 0 0 0 2.18209,-3.34358 l -23.67354,-53.75104 a 2.383205,2.383205 0 0 0 -2.28604,-1.41861 z m -69.89167,0.9088 a 2.383205,2.383205 0 0 0 -2.38306,2.38257 v 2.73329 a 2.383205,2.383205 0 0 0 2.38306,2.38307 h 17.50162 v 47.72242 a 2.383205,2.383205 0 0 0 2.38306,2.38307 h 2.84118 a 2.383205,2.383205 0 0 0 2.38256,-2.38307 V 171.1427 h 17.50211 a 2.383205,2.383205 0 0 0 2.38255,-2.38306 v -2.7333 a 2.383205,2.383205 0 0 0 -2.38255,-2.38257 z m 163.00617,0 a 2.383205,2.383205 0 0 0 -2.38307,2.38257 v 71.0587 a 2.383205,2.383205 0 0 0 2.38307,2.38306 h 2.84067 a 2.383205,2.383205 0 0 0 2.38306,-2.38306 v -65.94271 h 6.32809 c 7.19792,0 12.3695,1.19062 15.48746,3.16084 3.11797,1.97022 4.47552,4.49882 4.47552,8.57717 0,4.35456 -1.54362,6.94521 -5.26509,8.91705 a 2.383205,2.383205 0 0 0 -0.0335,0.0172 l -5.30207,2.91504 a 2.383205,2.383205 0 0 0 -0.8955,3.31403 l 1.4206,2.3678 a 2.383205,2.383205 0 0 0 3.19088,0.862 l 5.28529,-2.90421 c 5.92369,-3.18885 9.20619,-8.72205 9.20619,-15.48895 0,-5.96946 -2.5829,-11.04314 -7.36691,-14.3447 -4.83112,-3.39486 -11.59246,-4.89224 -20.20287,-4.89224 z m 43.01588,0 a 2.383205,2.383205 0 0 0 -2.38256,2.38257 v 2.73329 a 2.383205,2.383205 0 0 0 2.38256,2.38307 h 17.50212 v 47.72242 a 2.383205,2.383205 0 0 0 2.38306,2.38307 h 2.84068 a 2.383205,2.383205 0 0 0 2.38306,-2.38307 V 171.1427 h 17.5016 a 2.383205,2.383205 0 0 0 2.38307,-2.38306 v -2.7333 a 2.383205,2.383205 0 0 0 -2.38307,-2.38257 z m 53.52199,0 a 2.383205,2.383205 0 0 0 -2.38306,2.38257 v 52.83878 a 2.383205,2.383205 0 0 0 2.38306,2.38307 h 2.84116 a 2.383205,2.383205 0 0 0 2.38258,-2.38307 v -52.83879 a 2.383205,2.383205 0 0 0 -2.38258,-2.38257 z m 129.08807,0 a 2.383205,2.383205 0 0 0 -2.38306,2.38257 v 52.83878 a 2.383205,2.383205 0 0 0 2.38306,2.38307 h 2.84068 a 2.383205,2.383205 0 0 0 2.38306,-2.38307 v -39.82156 l 26.48269,41.11161 a 2.383205,2.383205 0 0 0 2.0033,1.09301 h 2.84067 a 2.383205,2.383205 0 0 0 2.38307,-2.38306 v -52.83879 a 2.383205,2.383205 0 0 0 -2.38307,-2.38257 h -2.84067 a 2.383205,2.383205 0 0 0 -2.38306,2.38257 v 39.74177 l -26.48468,-41.03397 a 2.383205,2.383205 0 0 0 -2.00131,-1.09056 z m -37.636,6.58668 c 2.98816,0 5.41596,0.32594 7.24575,0.8955 a 2.383205,2.383205 0 0 0 0.0596,0.0168 c 1.73049,0.48967 3.31365,1.431 4.83657,2.94854 a 2.383205,2.383205 0 0 0 0.0616,0.0577 c 1.40073,1.30119 2.58263,3.3814 3.38792,6.42512 a 2.383205,2.383205 0 0 0 0.004,0.0109 c 0.80395,2.98346 1.24374,6.9595 1.24374,11.86115 0,4.90166 -0.43974,8.90732 -1.24767,11.96115 -0.80406,2.97818 -1.98552,5.07458 -3.41995,6.45467 -1.52645,1.4686 -3.13822,2.43019 -4.90554,2.98401 -1.84775,0.51808 -4.28072,0.81373 -7.26593,0.81373 -2.98523,0 -5.41866,-0.29565 -7.26643,-0.81373 -1.75795,-0.55079 -3.40265,-1.51868 -4.9873,-2.98056 -1.37443,-1.37816 -2.53414,-3.47974 -3.33817,-6.45812 -0.80796,-3.05383 -1.24719,-7.05949 -1.24719,-11.96115 0,-4.90165 0.43978,-8.87769 1.24374,-11.86115 a 2.383205,2.383205 0 0 0 0.004,-0.0109 c 0.80888,-3.05728 1.97612,-5.15505 3.32487,-6.4527 1.59397,-1.53357 3.22482,-2.48725 4.9612,-2.97859 a 2.383205,2.383205 0 0 0 0.0596,-0.0173 c 1.82979,-0.56956 4.25757,-0.895 7.24575,-0.895 z"
       style="font-style:normal;font-variant:normal;font-weight:500;font-stretch:normal;font-size:medium;line-height:1.25;font-family:Megrim;-inkscape-font-specification:'Megrim Medium';letter-spacing:0px;word-spacing:0px;fill:#333333;fill-opacity:1;stroke:none;stroke-width:5;stroke-linecap:round;stroke-linejoin:round;stroke-miterlimit:4;stroke-dasharray:none" />
    <path
       id="path844"
       d="m 202.04746,95.975299 a 16.921292,16.921292 0 0 1 -16.92129,16.921301 16.921292,16.921292 0 0 1 -16.9213,-16.921301 16.921292,16.921292 0 0 1 16.9213,-16.921293 16.921292,16.921292 0 0 1 16.92129,16.921293 z"
       style="opacity:1;vector-effect:none;fill:#333333;fill-opacity:1;stroke:none;stroke-width:16;stroke-linecap:round;stroke-linejoin:round;stroke-miterlimit:4;stroke-dasharray:none;stroke-dashoffset:0;stroke-opacity:1;paint-order:markers stroke fill" />
    <path
       id="rect826"
       d="m 90.393476,145.63241 c -9.361054,0 -16.897219,7.53616 -16.897219,16.89722 v 47.72785 c 0,9.36105 7.536165,16.89721 16.897219,16.89721 H 225.24859 c 9.36105,0 16.89721,-7.53616 16.89721,-16.89721 V 186.3933 162.52963 c 0,-9.36106 -7.53616,-16.89722 -16.89721,-16.89722 z m 10.412994,15.62343 h 6.55713 c 9.36105,0 16.89721,7.53616 16.89721,16.89721 v 6.55714 c 0,9.36105 -7.53616,16.89721 -16.89721,16.89721 h -6.55713 c -9.361058,0 -16.897221,-7.53616 -16.897221,-16.89721 v -6.55714 c 0,-9.36105 7.536163,-16.89721 16.897221,-16.89721 z m 108.44483,0 h 6.55713 c 9.36106,0 16.89722,7.53616 16.89722,16.89721 v 6.55714 c 0,9.36105 -7.53616,16.89721 -16.89722,16.89721 h -6.55713 c -9.36105,0 -16.89722,-7.53616 -16.89722,-16.89721 v -6.55714 c 0,-9.36105 7.53617,-16.89721 16.89722,-16.89721 z m -26.43292,27.29691 a 2.8598461,2.8598461 0 0 1 2.82783,2.91159 c 3e-5,9.93663 -5.30683,19.12933 -13.91221,24.09765 -8.60537,4.9683 -19.21958,4.9683 -27.82495,0 -8.60537,-4.96832 -13.9142,-14.16102 -13.9142,-24.09765 a 2.8598461,2.8598461 0 0 1 2.81653,-2.90076 2.8598461,2.8598461 0 0 1 2.90274,2.90076 c 0,7.90255 4.21101,15.19257 11.05481,19.14384 6.84382,3.95128 15.26188,3.95128 22.10569,0 6.8438,-3.95127 11.05285,-11.24129 11.05285,-19.14384 a 2.8598461,2.8598461 0 0 1 2.89091,-2.91159 z"
       style="opacity:1;vector-effect:none;fill:#333333;fill-opacity:1;stroke:none;stroke-width:16;stroke-linecap:round;stroke-linejoin:round;stroke-miterlimit:4;stroke-dasharray:none;stroke-dashoffset:0;stroke-opacity:1;paint-order:markers stroke fill" />
    <path
       id="rect834"
       d="m 108.19797,232.19872 h 99.24653 c 2.17914,0 3.93348,1.75433 3.93348,3.93349 v 11.11056 c 0,2.17915 -1.75434,3.93349 -3.93348,3.93349 h -99.24653 c -2.17915,0 -3.93348,-1.75434 -3.93348,-3.93349 v -11.11056 c 0,-2.17916 1.75433,-3.93349 3.93348,-3.93349 z"
       style="opacity:1;vector-effect:none;fill:#333333;fill-opacity:1;stroke:none;stroke-width:5;stroke-linecap:round;stroke-linejoin:round;stroke-miterlimit:4;stroke-dasharray:none;stroke-dashoffset:0;stroke-opacity:1;paint-order:markers stroke fill" />
    <path
       id="rect836"
       d="m 117.47116,256.22019 h 80.70015 c 2.17915,0 3.93348,1.75434 3.93348,3.93349 v 11.11056 c 0,2.17916 -1.75433,3.9335 -3.93348,3.9335 h -80.70015 c -2.17916,0 -3.9335,-1.75434 -3.9335,-3.9335 v -11.11056 c 0,-2.17915 1.75434,-3.93349 3.9335,-3.93349 z"
       style="opacity:1;vector-effect:none;fill:#333333;fill-opacity:1;stroke:none;stroke-width:5;stroke-linecap:round;stroke-linejoin:round;stroke-miterlimit:4;stroke-dasharray:none;stroke-dashoffset:0;stroke-opacity:1;paint-order:markers stroke fill" />
  </g>
</svg>
